# xmcd CD database file
#
# Track frame offsets:
#	150
#	16249
#	33309
#	51887
#	70313
#	92292
#	110083
#	125646
#	141072
#	158113
#	178737
#	195564
#	209407
#
# Disc length: 3041 seconds
#
# Revision: 0
# Processed by: cddbd v1.5.2PL0 Copyright (c) Steve Scherf et al.
# Submitted via: CDex 1.51
#
DISCID=b40bdf0d
DTITLE=Keith Anderson - C'Mon!
DYEAR=2008
DGENRE=Country
TTITLE0=C'Mon!
TTITLE1=Break My Heart
TTITLE2=Somebody Needs a Hug
TTITLE3=She Could've Been Mine
TTITLE4=Sunday Morning in America
TTITLE5=I Still Miss You
TTITLE6=Crazy Over You (Feat. Foster and Lloyd)
TTITLE7=I Ain't Hurtin' Nobody But Me
TTITLE8=Adaliene
TTITLE9=Lost In This Moment
TTITLE10=Closest I've Ever Been
TTITLE11=Beer Run
TTITLE12=Jake's Going All the Way
EXTD=YEAR: 2008
EXTT0=
EXTT1=
EXTT2=
EXTT3=
EXTT4=
EXTT5=
EXTT6=
EXTT7=
EXTT8=
EXTT9=
EXTT10=
EXTT11=
EXTT12=
PLAYORDER=
